<svg data-v-0dd9719b="" version="1.0" xmlns="http://www.w3.org/2000/svg" xmlns:xlink="http://www.w3.org/1999/xlink" width="100%" height="100%" viewBox="0 0 340.000000 250.000000" preserveAspectRatio="xMidYMid meet" color-interpolation-filters="sRGB" style="margin: auto;"> <rect data-v-0dd9719b="" x="0" y="0" width="100%" height="100%" fill="#fff" fill-opacity="1" class="background"></rect> <rect data-v-0dd9719b="" x="0" y="0" width="100%" height="100%" fill="url(#watermark)" fill-opacity="1" class="watermarklayer"></rect> <g data-v-0dd9719b="" fill="#333333" class="icon-text-wrapper icon-svg-group iconsvg" transform="translate(51,86.95790100239464)"><g class="iconsvg-imagesvg" transform="translate(0,0)"><g><rect fill="#333333" fill-opacity="0" stroke-width="2" x="0" y="0" width="60" height="76.0841998478316" class="image-rect"></rect> <svg x="0" y="0" width="60" height="76.0841998478316" filtersec="colorsb9452600332" class="image-svg-svg primary" style="overflow: visible;"><svg xmlns="http://www.w3.org/2000/svg" viewBox="0.015243369154632092 0.022621607407927513 78.81001281738281 99.93712615966797"><defs><linearGradient id="ac0eb33ae-3eac-4667-81c6-086f56239a69" x1="774.37" y1="140.57" x2="774.37" y2="25.45" gradientTransform="matrix(-.88 .47 .47 .88 687.68 -372.05)" gradientUnits="userSpaceOnUse"><stop offset="0" stop-color="#00e155"></stop><stop offset="1" stop-color="#007262"></stop></linearGradient><linearGradient id="b362e1d9c-ebf6-4afd-aff8-7acbc643cdec" x1="720.61" y1="39.7" x2="734.27" y2="108.21" gradientTransform="matrix(-.9 .44 .44 .9 657.16 -347.09)" gradientUnits="userSpaceOnUse"><stop offset="0" stop-color="#ff566f"></stop><stop offset="1" stop-color="#fc0"></stop></linearGradient></defs><g><g><path d="M75.45 51.3L53.88 28.18a11.19 11.19 0 0 0-18.52 3.41L18 84.55A11.18 11.18 0 0 0 32.4 99.2l42.67-31.39s8.19-7.64.38-16.51z" opacity=".8" fill="url(#ac0eb33ae-3eac-4667-81c6-086f56239a69)"></path><path d="M5.05 47.57L31.81 71.8a11.19 11.19 0 0 0 16.92-6.41L64 14.17A11.18 11.18 0 0 0 47.05 1.88l-42 27a11.19 11.19 0 0 0 0 18.69z" opacity=".8" fill="url(#b362e1d9c-ebf6-4afd-aff8-7acbc643cdec)"></path><path d="M24.37 65.07l11-33.48a11.19 11.19 0 0 1 18.52-3.41L58.38 33l-9.65 32.4a11.19 11.19 0 0 1-16.92 6.4z" fill="#ffca00" opacity=".8"></path></g></g></svg></svg> <!----></g></g> <g transform="translate(67,17.247098922729492)"><g data-gra="path-name" fill-rule="" class="tp-name iconsvg-namesvg"><g transform="scale(1)"><g><path d="M15.56-15.62L15.56 0 4.5 0 4.5-41.59 29.08-41.59 29.08-32.57 15.56-32.57 15.56-24.64 28.02-24.64 28.02-15.62 15.56-15.62ZM63.16 0L35.9 0 35.9-41.59 47.14-41.59 47.14-9.08 63.16-9.08 63.16 0ZM94.51-9.16L94.51 0 69.82 0 69.82-41.59 94.51-41.59 94.51-32.57 81.05-32.57 81.05-26.03 93.51-26.03 93.51-17.01 81.05-17.01 81.05-9.16 94.51-9.16ZM125.09-20.4L139.26 0 126.26 0 118.15-13 110.13 0 97.41 0 111.21-21.28 98.24-41.59 110.7-41.59 118.21-28.73 125.43-41.59 138.26-41.59 125.09-20.4ZM155.22 0L143.93 0 143.93-41.59 155.22-41.59 155.22 0ZM175.5 0L164.21 0 164.21-41.59 175.5-41.59 175.5 0Z" transform="translate(-4.5, 41.59000015258789)"></path></g> <!----> <!----> <!----> <!----> <!----> <!----> <!----></g></g> <!----></g></g><defs v-gra="od"></defs></svg>